<?xml version="1.0" encoding="utf-8"?>
<!-- Generator: Adobe Illustrator 21.1.0, SVG Export Plug-In . SVG Version: 6.00 Build 0)  -->
<svg version="1.1" id="Layer_1" xmlns="http://www.w3.org/2000/svg" xmlns:xlink="http://www.w3.org/1999/xlink" x="0px" y="0px"
	 viewBox="0 0 71.6 100" style="enable-background:new 0 0 71.6 100;" xml:space="preserve">
<style type="text/css">
	.st0{fill:#FFFFFF;}
</style>
<path class="st0" d="M56.5,0H15.1C6.7,0,0,6.7,0,15.1l0,0v41.5c0,8.3,6.7,15.1,15.1,15.1c0,0,0,0,0,0h41.5c8.3,0,15.1-6.7,15.1-15.1
	l0,0V15.1C71.6,6.7,64.9,0,56.5,0C56.5,0,56.5,0,56.5,0z M53.2,19.6v26.6c0,9.6-7.8,17.4-17.4,17.4s-17.4-7.8-17.4-17.4
	s7.8-17.4,17.4-17.4c1.7,0,3.4,0.3,5.1,0.8v11.6c-1.5-1.1-3.3-1.7-5.2-1.7c-4.3,0-7.8,2.9-7.8,6.5s3.5,6.5,7.8,6.5s7.8-2.9,7.8-6.5
	V14.6l4.8,3.2l4.9-3.3L53.2,19.6z M53.2,11.4l-4.9,3.3l-4.8-3.2V8l4.8,3.2L53.2,8V11.4z M0,81.9h5.7c4.6,0,7.8,3.2,7.8,7.3
	s-3.2,7.4-7.8,7.4H0L0,81.9z M3.2,84.8v8.9h2.5c2.3,0.1,4.3-1.6,4.4-3.9c0-0.2,0-0.3,0-0.5c0.1-2.3-1.7-4.3-4-4.4
	c-0.1,0-0.3,0-0.4,0L3.2,84.8z M14.5,85.3h3.2v2.3c0.5-1.6,2-2.6,3.6-2.5v3.3h-0.2c-2.1,0-3.4,1.3-3.4,4v4.2h-3.2V85.3z M21.6,91
	c0.2-3.4,3.1-5.9,6.4-5.7c3.1,0.2,5.6,2.6,5.7,5.7c-0.2,3.4-3.1,5.9-6.4,5.7C24.3,96.6,21.8,94.1,21.6,91z M30.6,91
	c0.1-1.7-1.2-3-2.9-3.1c0,0-0.1,0-0.1,0c-1.6,0-2.8,1.4-2.8,2.9c0,0,0,0,0,0.1c0,0.4,0.1,0.8,0.2,1.2c0.6,1.5,2.3,2.2,3.8,1.6
	C29.9,93.2,30.6,92.2,30.6,91L30.6,91z M34.9,85.3H38v1.6c0.8-1.2,2.1-1.9,3.5-1.8c2.6,0,5.1,2.1,5.1,5.8c0,3.8-2.5,5.8-5.1,5.8
	c-1.4,0-2.7-0.6-3.5-1.7v4.8h-3.2V85.3z M43.5,91c0.2-1.5-0.9-2.9-2.4-3.1s-2.9,0.9-3.1,2.4c0,0.2,0,0.5,0,0.7
	c-0.2,1.5,0.9,2.9,2.4,3.1s2.9-0.9,3.1-2.4C43.5,91.5,43.5,91.2,43.5,91z M47.8,81.2h3.3v2.8h-3.3V81.2z M47.9,85.3h3.2v11.3h-3.2
	L47.9,85.3z M53.4,88h-1.3v-2.6h1.3v-0.7c-0.1-1,0.2-2,0.9-2.7c0.7-0.6,1.6-0.9,2.6-0.9c0.8,0,1.5,0.1,2.3,0.3V84
	c-0.5-0.2-1-0.3-1.4-0.3c-0.7,0-1.2,0.4-1.2,1.2v0.4h2.6V88h-2.5v8.5h-3.2L53.4,88z M68.3,85.3h3.3l-4.3,11.5
	c-0.9,2.3-1.8,3.2-3.7,3.2c-1,0-2-0.3-2.8-0.8l1-2.3c0.4,0.3,0.9,0.4,1.4,0.4c0.5,0,1-0.3,1.1-0.7l-4.4-11.3h3.4l2.5,7.7L68.3,85.3z
	"/>
</svg>
