<svg id="Layer_1" data-name="Layer 1" xmlns="http://www.w3.org/2000/svg" viewBox="0 0 100 100"><title>Artboard 1</title><path d="M70.74,0H29.26A15.07,15.07,0,0,0,14.19,15.07V56.56A15.07,15.07,0,0,0,29.26,71.63H70.74A15.07,15.07,0,0,0,85.81,56.56V15.07A15.07,15.07,0,0,0,70.74,0ZM67.38,19.63V46.22A17.38,17.38,0,1,1,50,28.84a17.26,17.26,0,0,1,5.06.76V41.24a8.72,8.72,0,0,0-5.22-1.67C45.51,39.57,42,42.5,42,46.1s3.51,6.53,7.84,6.53,7.84-2.92,7.84-6.53V30.63h0v-16l4.81,3.21,4.89-3.27Zm0-8.24-4.89,3.27-4.81-3.21V8l4.85,3.24L67.38,8Z" fill="#fff"/><path d="M14.19,81.91h5.72c4.61,0,7.8,3.18,7.8,7.32v0c0,4.14-3.19,7.36-7.8,7.36H14.19Zm3.23,2.92v8.88h2.5a4.19,4.19,0,0,0,4.42-4.4v0a4.22,4.22,0,0,0-4.42-4.44Z" fill="#fff"/><path d="M28.72,85.3H31.9v2.27a3.47,3.47,0,0,1,3.59-2.48v3.34h-.17c-2.12,0-3.42,1.28-3.42,4v4.16H28.72Z" fill="#fff"/><path d="M35.81,91v0a6.09,6.09,0,0,1,12.16,0v0a6.09,6.09,0,0,1-12.16,0Zm9,0v0a3,3,0,0,0-3-3.11A2.88,2.88,0,0,0,39,90.91v0a3.37,3.37,0,0,0,.21,1.19A2.92,2.92,0,0,0,44.83,91Z" fill="#fff"/><path d="M49.05,85.3h3.19v1.62a4.12,4.12,0,0,1,3.5-1.83c2.62,0,5.12,2.06,5.12,5.83v0c0,3.76-2.45,5.83-5.12,5.83a4.31,4.31,0,0,1-3.5-1.68v4.84H49.05ZM57.67,91v0a2.76,2.76,0,1,0-5.47,0v0a2.76,2.76,0,1,0,5.47,0Z" fill="#fff"/><path d="M62,81.22h3.35v2.84H62Zm.08,4.08h3.19V96.57H62.12Z" fill="#fff"/><path d="M67.63,88H66.31V85.4h1.32v-.72a3.73,3.73,0,0,1,.9-2.73,3.49,3.49,0,0,1,2.58-.88,7,7,0,0,1,2.26.32V84a4,4,0,0,0-1.45-.27c-.73,0-1.15.38-1.15,1.22v.44h2.58V88H70.81v8.54H67.63Z" fill="#fff"/><path d="M82.5,85.3h3.31L81.49,96.84c-.86,2.29-1.78,3.16-3.69,3.16A5.26,5.26,0,0,1,75,99.22L76,96.91a2.89,2.89,0,0,0,1.36.44,1.06,1.06,0,0,0,1.11-.74L74.11,85.3h3.38L80,93Z" fill="#fff"/></svg>